<svg version="1.1" id="Layer_1" xmlns="http://www.w3.org/2000/svg" xmlns:xlink="http://www.w3.org/1999/xlink" x="0px" y="0px"
	 width="100%" viewBox="0 0 500 500" enable-background="new 0 0 500 500" xml:space="preserve">
<path fill="#040303" opacity="1.000000" stroke="none" 
	d="
M267.028046,371.928070 
	C264.072693,371.928070 261.117371,371.928070 257.922180,371.928070 
	C257.922180,386.293427 257.922180,400.158875 257.922180,414.416504 
	C265.164948,414.416504 272.122284,414.229340 279.056183,414.549255 
	C280.770477,414.628357 283.004791,415.950928 283.980469,417.392120 
	C288.590729,424.201996 292.847198,431.251434 297.739288,439.025024 
	C277.363190,439.025024 257.690582,439.025024 237.565338,438.482025 
	C237.112701,433.188416 237.112701,428.437805 237.112701,423.193054 
	C230.989273,423.193054 225.549316,423.209869 220.109497,423.189148 
	C211.554657,423.156555 211.554703,423.145874 210.991638,414.990906 
	C214.400421,414.652008 217.809204,414.313110 221.584229,413.937805 
	C221.584229,400.300903 221.584229,386.522339 221.584229,372.287323 
	C218.786346,372.127808 215.878540,371.962036 212.220215,371.591309 
	C187.906158,368.012543 167.660187,358.402039 152.305145,339.726837 
	C143.963425,329.581390 137.143860,318.642487 136.153351,305.090118 
	C135.620773,297.803192 135.706970,290.465790 135.015503,283.198578 
	C134.772736,280.647125 133.574829,277.769379 131.890015,275.851501 
	C127.071754,270.366699 121.863167,265.212982 116.643372,260.097107 
	C113.490204,257.006744 113.281876,254.470444 116.947517,251.643036 
	C126.280807,244.444016 135.487946,237.081360 144.830414,229.894470 
	C145.739670,229.195007 147.238617,229.262100 148.517944,229.440796 
	C148.897751,234.614761 149.223450,239.321259 149.547806,244.008240 
	C160.469269,244.008240 170.739166,244.008240 181.470032,244.096649 
	C187.195938,244.185059 192.460876,244.185059 198.293182,244.185059 
	C198.293182,237.892242 198.293182,232.144730 198.293182,225.863129 
	C211.432404,225.863129 224.008530,225.863129 236.816757,225.863129 
	C236.816757,216.954117 236.816757,208.598373 236.816757,199.768494 
	C223.836685,199.768494 211.249191,199.768494 198.447327,199.768494 
	C198.447327,196.725830 198.447327,194.165558 198.447327,190.899200 
	C204.451309,190.899200 210.172058,190.899200 215.781982,190.899200 
	C215.781982,180.956726 215.781982,171.728607 215.781982,162.009857 
	C209.786789,162.009857 204.196106,162.009857 198.452774,162.009857 
	C198.452774,159.442200 198.452774,157.382950 198.452774,154.638824 
	C211.471130,154.638824 224.175461,154.638824 236.886719,154.638824 
	C236.886719,145.846771 236.886719,137.745651 236.886719,129.098846 
	C224.038330,129.098846 211.463303,129.098846 198.530060,129.098846 
	C197.842178,113.767242 197.738525,99.131371 208.688660,87.299469 
	C213.225891,82.396896 218.382919,78.067902 223.258087,73.478058 
	C236.290115,70.558601 249.202057,71.115784 262.271729,73.815689 
	C281.797089,77.849213 297.672638,96.201111 298.039551,116.120979 
	C298.121552,120.571587 298.051605,125.025002 298.051605,129.981033 
	C301.468658,129.981033 304.422058,129.981033 307.829102,130.525574 
	C308.294983,139.093552 308.307251,147.116989 307.850586,155.240540 
	C304.338654,155.340652 301.295685,155.340652 298.307251,155.340652 
	C298.307251,159.402283 298.307251,162.629379 298.307251,166.351212 
	C301.820526,166.351212 305.075317,166.351212 308.330536,166.796295 
	C308.341095,175.114914 308.351227,182.988434 307.875427,190.909714 
	C304.486420,190.957458 301.583344,190.957458 298.644165,190.957458 
	C298.644165,194.929382 298.644165,198.316666 298.644165,201.759048 
	C301.998840,202.025314 305.075256,202.269501 308.187195,202.948914 
	C308.215515,211.003952 308.208252,218.623764 307.738739,226.322632 
	C304.332733,226.401718 301.388977,226.401718 298.268097,226.401718 
	C298.268097,232.619705 298.268097,238.183929 298.268097,244.049988 
	C308.527954,244.049988 318.576172,244.049988 328.650055,244.049988 
	C329.166412,238.852020 329.670349,233.778809 330.539398,228.738678 
	C331.973267,229.198715 333.224121,229.398621 334.082977,230.087402 
	C343.924255,237.979691 353.701050,245.952271 363.506439,253.889404 
	C366.349487,256.190765 364.508301,257.799500 362.786804,259.533661 
	C357.646423,264.711853 352.323242,269.736023 347.544739,275.231812 
	C345.767426,277.275940 344.596954,280.402679 344.374237,283.135498 
	C343.794830,290.245056 344.387299,297.464264 343.607422,304.540009 
	C342.419312,315.319885 337.408539,324.605469 331.282959,333.491638 
	C322.282898,346.547791 310.715820,356.611481 296.344269,362.831635 
	C287.008636,366.872223 276.829346,368.963470 267.028046,371.928070 
M213.539917,326.522064 
	C213.539917,326.522064 213.535522,326.486938 213.301453,325.842407 
	C204.949646,317.505280 199.691315,307.548737 198.879913,295.741486 
	C198.327087,287.697113 198.774185,279.584045 198.774185,271.142395 
	C192.070480,271.142395 186.470779,271.142395 179.956070,271.029083 
	C169.685730,271.029083 159.415390,271.029083 148.768295,271.029083 
	C148.768295,276.848877 148.859955,282.313843 148.749847,287.774750 
	C148.494003,300.463684 150.676590,312.582916 157.165176,323.651825 
	C164.630157,336.386353 175.273224,345.421173 190.357620,345.828400 
	C221.473877,346.668518 252.623413,346.774567 283.752228,346.467499 
	C303.018829,346.277466 316.213531,335.995544 324.421997,318.815826 
	C331.706757,303.569244 329.749542,287.400269 329.959778,271.281311 
	C319.146484,271.281311 308.760590,271.281311 298.054657,271.281311 
	C298.054657,278.034302 298.270538,284.509338 298.010803,290.965210 
	C297.428436,305.438446 291.337341,317.286224 279.631561,325.759918 
	C266.314087,335.400421 250.912079,337.090118 234.386230,335.641205 
	C228.647980,333.401337 222.909729,331.161499 216.825882,328.359467 
	C215.738083,327.756104 214.650284,327.152740 213.539917,326.522064 
z"/>
<path fill="#EC0808" opacity="1.000000" stroke="none" 
	d="
M308.361359,190.861969 
	C308.351227,182.988434 308.341095,175.114914 308.599121,166.473297 
	C308.684723,162.183609 308.502136,158.662018 308.319550,155.140427 
	C308.307251,147.116989 308.294983,139.093552 308.298401,130.613007 
	C310.498596,119.461922 308.775635,109.130898 305.380859,98.965744 
	C302.590393,90.610115 298.335693,83.266647 290.964264,78.035652 
	C290.138123,77.449371 289.713440,76.297287 289.102600,75.407585 
	C289.358612,74.916168 289.614655,74.424751 289.870667,73.933334 
	C294.129700,75.862923 299.175629,76.910629 302.505280,79.881752 
	C314.099670,90.227638 319.910248,103.625427 319.939362,119.178566 
	C320.000458,151.815338 319.781982,184.452621 319.699982,217.089737 
	C319.699280,217.368073 319.997406,217.647141 320.386292,218.330551 
	C323.627899,216.922623 326.831818,215.194565 330.248352,214.188034 
	C331.977295,213.678696 334.636597,213.772507 335.942535,214.790359 
	C345.505005,222.243362 354.833099,229.997192 364.230530,237.661789 
	C368.462830,241.113693 372.684601,244.578568 377.256226,248.124557 
	C377.601318,248.211563 377.654633,248.170380 377.765900,248.454987 
	C378.236542,248.917709 378.595886,249.095810 379.088196,249.571259 
	C380.841614,251.414383 382.462128,252.960159 384.098602,254.521149 
	C382.872406,256.861603 381.839661,258.832825 380.806885,260.804077 
	C379.403625,261.510040 377.712921,261.922729 376.644226,262.970154 
	C370.233398,269.253143 363.822968,275.551392 357.762909,282.165741 
	C356.456177,283.592010 356.020203,286.366425 356.141449,288.464478 
	C357.207397,306.910309 352.129089,323.915375 342.311401,339.058777 
	C328.355011,360.585907 308.449280,374.252045 282.913788,379.004395 
	C280.336395,379.484070 279.137878,380.430359 279.302399,383.201935 
	C279.506683,386.642456 279.351410,390.104309 279.351410,393.732819 
	C281.288818,393.831940 282.641418,394.163483 283.882660,393.922180 
	C292.122803,392.320099 297.257355,395.604187 301.472321,402.864441 
	C308.205475,414.462341 315.988861,425.450348 323.318817,436.702332 
	C323.662201,437.229370 323.914490,437.815765 324.567505,439.054016 
	C320.136566,439.054016 316.214111,439.270721 312.340820,438.929535 
	C311.085815,438.818939 309.596985,437.481781 308.832611,436.304718 
	C303.415253,427.962677 298.139740,419.528076 292.858795,411.098083 
	C290.396332,407.167267 287.227203,405.480408 282.283234,405.239960 
	C263.619720,404.332214 267.564117,404.824738 267.174744,390.346863 
	C267.018127,384.525055 267.129059,378.696045 267.073120,372.399200 
	C276.829346,368.963470 287.008636,366.872223 296.344269,362.831635 
	C310.715820,356.611481 322.282898,346.547791 331.282959,333.491638 
	C337.408539,324.605469 342.419312,315.319885 343.607422,304.540009 
	C344.387299,297.464264 343.794830,290.245056 344.374237,283.135498 
	C344.596954,280.402679 345.767426,277.275940 347.544739,275.231812 
	C352.323242,269.736023 357.646423,264.711853 362.786804,259.533661 
	C364.508301,257.799500 366.349487,256.190765 363.506439,253.889404 
	C353.701050,245.952271 343.924255,237.979691 334.082977,230.087402 
	C333.224121,229.398621 331.973267,229.198715 330.320129,228.492767 
	C327.258911,229.421997 324.848999,230.801880 322.289948,231.799164 
	C318.207336,233.390198 314.025543,234.726761 309.639832,236.256683 
	C309.021637,231.954620 308.611298,229.099091 308.200989,226.243561 
	C308.208252,218.623764 308.215515,211.003952 308.513672,202.643509 
	C308.656799,198.222565 308.509094,194.542267 308.361359,190.861969 
z"/>
<path fill="#757575" opacity="1.000000" stroke="none" 
	d="
M222.870667,73.300484 
	C218.382919,78.067902 213.225891,82.396896 208.688660,87.299469 
	C197.738525,99.131371 197.842178,113.767242 198.530060,129.098846 
	C211.463303,129.098846 224.038330,129.098846 236.886719,129.098846 
	C236.886719,137.745651 236.886719,145.846771 236.886719,154.638824 
	C224.175461,154.638824 211.471130,154.638824 198.452774,154.638824 
	C198.452774,157.382950 198.452774,159.442200 198.452774,162.009857 
	C204.196106,162.009857 209.786789,162.009857 215.781982,162.009857 
	C215.781982,171.728607 215.781982,180.956726 215.781982,190.899200 
	C210.172058,190.899200 204.451309,190.899200 198.447327,190.899200 
	C198.447327,194.165558 198.447327,196.725830 198.447327,199.768494 
	C211.249191,199.768494 223.836685,199.768494 236.816757,199.768494 
	C236.816757,208.598373 236.816757,216.954117 236.816757,225.863129 
	C224.008530,225.863129 211.432404,225.863129 198.293182,225.863129 
	C198.293182,232.144730 198.293182,237.892242 198.293182,244.185059 
	C192.460876,244.185059 187.195938,244.185059 181.484100,243.628494 
	C181.037125,237.700897 181.037048,232.329849 181.352142,226.678024 
	C181.806732,219.382370 182.015427,212.367645 182.029343,205.352539 
	C182.032257,203.882217 181.317886,202.410477 180.972290,200.560791 
	C181.069717,197.746979 181.128922,195.311768 181.462708,192.575012 
	C181.851807,184.481506 182.009094,176.689651 182.027542,168.897461 
	C182.029892,167.905975 181.306732,166.912766 180.948334,165.477448 
	C180.877411,161.863388 180.777847,158.692261 181.091812,155.290192 
	C181.689743,147.621048 181.922302,140.183319 182.000854,132.743973 
	C182.011276,131.756195 181.238861,130.760147 180.828979,129.767929 
	C181.440475,121.867233 180.604874,113.505638 182.945786,106.155754 
	C188.987991,87.184669 202.534622,76.035027 222.870667,73.300484 
z"/>
<path fill="#D1E2EA" opacity="1.000000" stroke="none" 
	d="
M95.803497,257.047180 
	C95.887787,258.580933 95.353706,260.695679 96.158600,261.552399 
	C100.745033,266.433838 100.604782,272.712555 101.695999,278.614777 
	C105.831482,300.983002 112.607040,322.334045 125.537552,341.356720 
	C125.697983,341.592743 125.624413,341.987793 125.741867,343.044342 
	C124.149864,343.354187 122.518417,343.779816 120.859871,343.974701 
	C115.281563,344.630249 109.681114,345.108948 104.113953,345.843445 
	C100.713982,346.292023 98.233856,346.005981 96.464134,342.301086 
	C87.431602,323.391571 78.934364,304.320251 76.994736,283.119934 
	C76.090286,273.234161 74.942383,263.291626 75.146393,253.400452 
	C75.536201,234.502335 80.024071,216.221497 87.285301,198.892029 
	C92.130089,187.329559 98.906357,176.580048 104.740700,165.426178 
	C106.345993,162.357254 108.296707,161.683060 111.634384,162.950241 
	C117.921791,165.337341 124.388412,167.252411 131.116287,169.474594 
	C126.864822,176.295670 122.665787,182.435150 119.076530,188.912506 
	C110.984978,203.514862 105.666298,219.163712 102.001205,235.440445 
	C100.854935,240.531082 98.735329,245.402527 97.084747,250.724030 
	C97.108223,251.073730 97.180183,251.038910 96.926346,251.146759 
	C96.460098,251.546677 96.247696,251.838730 95.960022,252.449646 
	C95.857674,254.194733 95.830582,255.620956 95.803497,257.047180 
z"/>
<path fill="#D1E2EA" opacity="1.000000" stroke="none" 
	d="
M380.753052,261.165222 
	C381.839661,258.832825 382.872406,256.861603 384.098602,254.521149 
	C382.462128,252.960159 380.841614,251.414383 378.966614,249.289703 
	C378.359619,248.530670 378.007141,248.350525 377.654633,248.170380 
	C377.654633,248.170380 377.601318,248.211563 377.570129,248.225616 
	C375.921661,239.011307 375.490875,229.363358 372.410522,220.652328 
	C367.726562,207.406296 361.394165,194.720367 355.355225,181.989456 
	C353.420197,177.910172 350.197845,174.441544 346.779266,169.575974 
	C354.715424,167.172882 361.529999,164.782959 368.530701,163.234650 
	C370.144073,162.877838 373.067383,164.947311 374.248840,166.677841 
	C385.508392,183.170227 392.615051,201.517883 398.148895,220.607040 
	C403.399475,238.718872 404.482330,257.232056 402.655884,275.727386 
	C400.695679,295.577271 395.511780,314.782196 386.187866,332.657806 
	C384.423340,336.040741 383.257904,339.755554 381.308136,343.013306 
	C380.475128,344.405121 378.275940,345.932648 376.806396,345.830597 
	C369.069885,345.293427 361.368164,344.255402 352.878815,343.304352 
	C353.604279,341.656555 354.110046,340.024506 354.976074,338.613556 
	C366.964996,319.081116 374.160431,297.916046 377.120270,275.206116 
	C377.724609,270.569519 379.476349,266.082428 380.753052,261.165222 
z"/>
<path fill="#EB0808" opacity="1.000000" stroke="none" 
	d="
M95.991890,257.332977 
	C95.830582,255.620956 95.857674,254.194733 96.230423,252.366150 
	C96.777451,251.655487 96.978821,251.347198 97.180191,251.038910 
	C97.180183,251.038910 97.108223,251.073730 97.133484,251.104874 
	C110.571358,240.120422 124.171005,229.320953 137.290802,217.967010 
	C141.633820,214.208557 145.425873,212.265976 150.844330,215.643768 
	C150.996582,216.005417 150.858078,216.157593 150.482803,216.116898 
	C148.823532,216.336578 147.538712,216.592926 146.255768,216.858337 
	C144.573929,217.206253 142.893585,217.561340 141.212601,217.913330 
	C142.438507,219.602386 143.432678,221.544357 144.940384,222.925873 
	C147.751740,225.501968 150.861725,227.752151 153.510712,230.059479 
	C151.603958,229.645111 150.033905,229.309235 148.463852,228.973358 
	C147.238617,229.262100 145.739670,229.195007 144.830414,229.894470 
	C135.487946,237.081360 126.280807,244.444016 116.947517,251.643036 
	C113.281876,254.470444 113.490204,257.006744 116.643372,260.097107 
	C121.863167,265.212982 127.071754,270.366699 131.890015,275.851501 
	C133.574829,277.769379 134.772736,280.647125 135.015503,283.198578 
	C135.706970,290.465790 135.620773,297.803192 136.153351,305.090118 
	C137.143860,318.642487 143.963425,329.581390 152.305145,339.726837 
	C167.660187,358.402039 187.906158,368.012543 211.769043,371.634888 
	C212.039352,380.543243 211.784409,389.210663 212.076736,397.859619 
	C212.222656,402.176880 210.311462,404.027740 206.493073,404.553009 
	C202.705261,405.074066 198.796555,405.042480 195.126785,405.980560 
	C192.684265,406.604950 189.798584,407.971527 188.441025,409.928406 
	C183.056030,417.690735 177.928833,425.664825 173.253128,433.872070 
	C170.984665,437.853943 168.450134,439.741821 163.872421,439.115234 
	C161.437103,438.781891 158.918579,439.056183 155.640549,439.056183 
	C157.098953,436.440002 158.148453,434.253937 159.466141,432.243744 
	C166.929214,420.858612 174.592224,409.601532 181.874817,398.103058 
	C183.918869,394.875702 186.122284,393.515381 189.875305,393.897949 
	C192.976013,394.214020 196.134567,393.962524 199.925949,393.962524 
	C199.925949,389.616425 200.154510,385.659210 199.768951,381.762756 
	C199.669662,380.759430 197.744492,379.365601 196.478271,379.133942 
	C174.834366,375.173859 157.144302,364.537415 143.265167,347.604858 
	C129.278656,330.541290 122.006416,311.044220 122.971466,288.794586 
	C123.118980,285.393585 122.138885,283.100403 119.503365,280.661224 
	C111.486931,273.241974 103.921387,265.335510 95.991890,257.332977 
z"/>
<path fill="#EA0808" opacity="1.000000" stroke="none" 
	d="
M407.581696,348.640625 
	C403.660767,348.640625 399.739838,348.640625 395.694489,348.640625 
	C430.173401,275.691528 422.395538,207.201630 374.836609,142.020096 
	C379.641571,142.020096 383.715332,142.020096 388.335205,142.419525 
	C406.814697,169.242874 420.010986,197.721725 425.616028,229.334824 
	C430.143646,254.871292 429.836365,280.443604 422.739899,305.457794 
	C418.584076,320.106537 412.692444,334.262817 407.581696,348.640625 
z"/>
<path fill="#EA0807" opacity="1.000000" stroke="none" 
	d="
M89.097260,143.155380 
	C93.208656,143.155380 97.320053,143.155380 102.327644,143.155380 
	C55.731129,208.125137 48.042797,276.434296 82.498138,348.973572 
	C79.058052,348.973572 75.613045,348.973572 71.628128,348.553253 
	C57.327702,321.558746 50.268394,293.238129 50.266304,263.384705 
	C50.265457,251.322006 51.566219,239.170242 53.342606,227.217728 
	C55.868290,210.223511 61.229370,193.931488 69.169113,178.673035 
	C75.432396,166.636368 82.427292,154.980408 89.097260,143.155380 
z"/>
<path fill="#E90808" opacity="1.000000" stroke="none" 
	d="
M51.115479,143.135925 
	C54.906998,143.135925 58.698517,143.135925 63.463646,143.135925 
	C22.491247,208.973877 16.223909,277.338257 46.337673,348.928802 
	C42.869698,348.928802 39.405605,348.928802 35.381245,348.519165 
	C30.417435,333.861145 25.240385,319.798615 21.763573,305.327606 
	C13.254892,269.913116 15.585922,234.764069 26.155470,200.019791 
	C32.228779,180.055603 40.413555,161.052124 51.115479,143.135925 
z"/>
<path fill="#EA0809" opacity="1.000000" stroke="none" 
	d="
M443.499390,348.663757 
	C439.851562,348.663757 436.203705,348.663757 432.114685,348.663757 
	C461.510651,276.957367 455.616913,208.302048 414.164703,142.049728 
	C418.822845,142.049728 422.408478,142.049728 426.554382,142.447189 
	C441.216156,166.253403 450.807007,191.441162 456.595673,218.094986 
	C462.204498,243.920685 463.304047,270.003937 457.876892,295.862793 
	C454.136627,313.683960 448.363831,331.078522 443.499390,348.663757 
z"/>
<path fill="#0E0606" opacity="1.000000" stroke="none" 
	d="
M443.987854,348.750671 
	C448.363831,331.078522 454.136627,313.683960 457.876892,295.862793 
	C463.304047,270.003937 462.204498,243.920685 456.595673,218.094986 
	C450.807007,191.441162 441.216156,166.253403 427.002747,142.519928 
	C442.074066,142.106735 437.748383,139.318222 443.977539,152.415680 
	C453.277191,171.969025 461.727325,191.924469 466.292999,213.211029 
	C471.725159,238.537460 472.872009,263.995636 469.479858,289.829010 
	C466.799133,310.244019 460.954498,329.573212 453.509155,348.837616 
	C450.432434,348.837616 447.454376,348.837616 443.987854,348.750671 
z"/>
<path fill="#0C0506" opacity="1.000000" stroke="none" 
	d="
M50.649948,143.046082 
	C40.413555,161.052124 32.228779,180.055603 26.155470,200.019791 
	C15.585922,234.764069 13.254892,269.913116 21.763573,305.327606 
	C25.240385,319.798615 30.417435,333.861145 34.931702,348.448944 
	C31.567360,348.788391 28.092291,348.788391 24.514315,348.788391 
	C15.283693,328.568115 11.048351,307.065674 8.111564,285.211182 
	C4.453516,257.989319 7.116038,231.094681 14.163209,204.851669 
	C18.291870,189.476898 25.176924,174.836655 30.929644,159.907455 
	C32.472286,155.904053 34.672119,152.145142 36.094044,148.106339 
	C37.612354,143.793777 40.248360,142.143188 44.704033,142.862549 
	C46.489342,143.150757 48.355213,142.939926 50.649948,143.046082 
z"/>
<path fill="#0D0506" opacity="1.000000" stroke="none" 
	d="
M88.634537,143.055450 
	C82.427292,154.980408 75.432396,166.636368 69.169113,178.673035 
	C61.229370,193.931488 55.868290,210.223511 53.342606,227.217728 
	C51.566219,239.170242 50.265457,251.322006 50.266304,263.384705 
	C50.268394,293.238129 57.327702,321.558746 71.194687,348.476868 
	C60.322937,349.516571 59.924534,349.671997 55.895027,339.343933 
	C43.687927,308.055786 37.138016,275.836548 40.772953,242.026855 
	C43.914631,212.805130 53.523556,185.687485 67.034355,159.804291 
	C69.481644,155.115936 71.942688,150.409714 74.814430,145.982254 
	C75.762497,144.520584 77.925583,143.350632 79.706139,143.040421 
	C82.449684,142.562424 85.342392,142.940552 88.634537,143.055450 
z"/>
<path fill="#0E0506" opacity="1.000000" stroke="none" 
	d="
M408.061096,348.739441 
	C412.692444,334.262817 418.584076,320.106537 422.739899,305.457794 
	C429.836365,280.443604 430.143646,254.871292 425.616028,229.334824 
	C420.010986,197.721725 406.814697,169.242874 388.773834,142.479797 
	C389.661957,142.086227 390.680237,142.147888 391.649597,141.958862 
	C398.830292,140.558792 402.587311,143.706848 406.059998,150.138702 
	C419.237946,174.546036 430.325867,199.574036 435.157623,227.141968 
	C440.059357,255.109024 438.763977,282.740845 431.603760,310.084656 
	C428.969116,320.145935 425.476685,330.005829 421.943817,339.801880 
	C418.600891,349.071320 418.352051,348.981567 408.061096,348.739441 
z"/>
<path fill="#F70404" opacity="1.000000" stroke="none" 
	d="
M171.166672,105.494820 
	C171.166672,105.494820 171.218002,105.799538 170.806488,106.115952 
	C169.596146,109.034744 168.116486,111.633461 168.102448,114.240082 
	C167.939499,144.492645 167.997879,174.746414 167.647919,204.943573 
	C164.877655,203.925110 162.457047,202.962921 160.028214,201.532089 
	C160.015594,173.415375 159.916000,145.766693 160.090820,118.119728 
	C160.123917,112.887260 161.246704,107.661690 161.866699,102.432938 
	C161.866699,102.432938 161.797287,102.178383 162.158112,101.912155 
	C162.621872,101.045715 162.724823,100.445511 162.827789,99.845299 
	C162.827789,99.845299 162.915817,99.940979 163.165863,99.769485 
	C163.591736,98.711380 163.767548,97.824776 163.943375,96.938179 
	C163.943375,96.938179 163.996399,97.001434 164.320587,96.945496 
	C165.751755,94.578056 166.858704,92.266548 167.965668,89.955040 
	C167.965668,89.955040 168.003754,89.993103 168.217194,89.864624 
	C168.572449,89.418892 168.714249,89.101639 168.856033,88.784386 
	C168.856033,88.784386 168.883072,88.894554 169.207245,88.871208 
	C170.003464,87.847336 170.475479,86.846802 170.947510,85.846275 
	C170.928848,85.524628 171.040298,85.257202 171.858978,84.965210 
	C172.890503,84.177528 173.344925,83.468643 173.799347,82.759750 
	C173.799347,82.759758 173.890793,82.873428 174.091309,82.814980 
	C174.535614,82.501907 174.779388,82.247276 175.023163,81.992645 
	C178.033539,80.028191 179.184433,75.340080 184.663391,75.941154 
	C185.930359,76.665985 186.461411,77.363220 186.992477,78.060455 
	C186.920441,78.405403 186.728271,78.659523 185.942444,78.963188 
	C185.163239,79.290825 184.993179,79.562866 184.958725,79.919670 
	C184.958725,79.919670 184.996124,79.989571 184.641357,80.006996 
	C183.854141,80.679771 183.421707,81.335129 182.989258,81.990479 
	C182.989258,81.990479 183.000000,82.000000 182.752167,82.116524 
	C182.352127,82.549866 182.199905,82.866684 182.047699,83.183502 
	C182.044357,83.501045 181.912750,83.751068 181.167938,84.098091 
	C180.545258,84.608978 180.407501,84.955353 180.269745,85.301720 
	C180.269745,85.301720 180.218658,85.178040 179.960281,85.265999 
	C179.483521,85.925522 179.265137,86.497086 179.046753,87.068649 
	C179.046768,87.068649 179.005157,87.011337 178.769958,87.167862 
	C178.359970,87.892372 178.185165,88.460358 178.010361,89.028351 
	C178.010361,89.028351 177.993683,89.005760 177.643219,89.068771 
	C176.889526,90.455894 176.486282,91.780014 176.083054,93.104134 
	C176.083054,93.104134 176.029175,93.033127 175.802826,93.184341 
	C175.438080,93.707207 175.299698,94.078857 175.161301,94.450500 
	C175.161301,94.450500 175.134277,94.763390 174.689972,95.035110 
	C173.866028,96.644043 173.486374,97.981270 173.106720,99.318497 
	C173.106720,99.318497 173.141754,99.663292 172.756836,100.047058 
	C171.970169,102.118828 171.568420,103.806824 171.166672,105.494820 
z"/>
<path fill="#767676" opacity="1.000000" stroke="none" 
	d="
M210.602386,414.864563 
	C211.554703,423.145874 211.554657,423.156555 220.109497,423.189148 
	C225.549316,423.209869 230.989273,423.193054 237.112701,423.193054 
	C237.112701,428.437805 237.112701,433.188416 237.110306,438.397095 
	C218.966248,438.855133 200.824585,438.855133 181.927353,438.855133 
	C183.829590,435.763885 185.563217,432.869843 187.375961,430.026276 
	C188.716141,427.923981 190.654922,426.065002 191.470001,423.790497 
	C194.804337,414.485870 201.681763,413.016174 210.602386,414.864563 
z"/>
<path fill="#0E0303" opacity="1.000000" stroke="none" 
	d="
M180.393036,129.828125 
	C181.238861,130.760147 182.011276,131.756195 182.000854,132.743973 
	C181.922302,140.183319 181.689743,147.621048 180.661804,155.242249 
	C176.676849,155.342712 173.535416,155.260223 170.322937,154.703918 
	C170.290588,146.187439 170.329269,138.144806 170.367950,130.102158 
	C173.564331,130.030884 176.760696,129.959610 180.393036,129.828125 
z"/>
<path fill="#EB0808" opacity="1.000000" stroke="none" 
	d="
M170.038208,129.725952 
	C170.329269,138.144806 170.290588,146.187439 170.026001,155.020721 
	C169.950668,159.326202 170.101227,162.841064 170.219818,166.800446 
	C170.236038,175.131348 170.284256,183.017761 170.065460,191.253799 
	C169.946884,195.135651 170.095337,198.667862 170.232239,202.655411 
	C170.366425,210.887253 170.512161,218.663742 170.461914,226.783035 
	C169.216705,236.472839 166.811722,237.763702 158.600677,233.373627 
	C158.165619,233.141037 157.783661,232.809113 157.779694,232.393631 
	C160.219650,232.681061 162.256882,233.098282 163.526413,233.358276 
	C169.304794,230.821152 167.949463,226.077087 167.986938,221.807541 
	C168.036102,216.205383 167.998093,210.602463 167.997559,204.999863 
	C167.997879,174.746414 167.939499,144.492645 168.102448,114.240082 
	C168.116486,111.633461 169.596146,109.034744 170.680664,106.205605 
	C170.547043,113.769157 170.127762,121.559456 170.038208,129.725952 
z"/>
<path fill="#EB0808" opacity="1.000000" stroke="none" 
	d="
M161.569580,102.721268 
	C161.246704,107.661690 160.123917,112.887260 160.090820,118.119728 
	C159.916000,145.766693 160.015594,173.415375 160.018158,201.993958 
	C159.704285,208.299698 159.392288,213.674911 159.039200,219.017059 
	C158.998123,218.983994 158.919006,218.914276 158.919006,218.914276 
	C158.924759,187.000153 158.799469,155.085052 159.042114,123.172722 
	C159.093262,116.446419 160.493729,109.730377 161.569580,102.721268 
z"/>
<path fill="#EB0808" opacity="1.000000" stroke="none" 
	d="
M151.065857,215.929352 
	C153.498154,216.861176 155.861160,217.869049 158.571594,218.895599 
	C158.919006,218.914276 158.998123,218.983994 158.971756,219.338516 
	C156.249619,218.514557 153.553848,217.336075 150.858078,216.157593 
	C150.858078,216.157593 150.996582,216.005417 151.065857,215.929352 
z"/>
<path fill="#DC2122" opacity="1.000000" stroke="none" 
	d="
M187.311081,77.962837 
	C186.461411,77.363220 185.930359,76.665985 185.040878,75.907822 
	C186.527130,75.003059 188.371796,74.159225 190.216446,73.315399 
	C190.659683,73.940536 191.102921,74.565674 191.546158,75.190804 
	C190.240662,76.082275 188.935181,76.973747 187.311081,77.962837 
z"/>
<path fill="#EB0808" opacity="1.000000" stroke="none" 
	d="
M167.678543,90.134682 
	C166.858704,92.266548 165.751755,94.578056 164.288208,96.919617 
	C165.084900,94.737892 166.238159,92.526108 167.678543,90.134682 
z"/>
<path fill="#DC2122" opacity="1.000000" stroke="none" 
	d="
M171.437408,105.231056 
	C171.568420,103.806824 171.970169,102.118828 172.655518,100.187637 
	C172.528809,101.618729 172.118484,103.293007 171.437408,105.231056 
z"/>
<path fill="#DC2122" opacity="1.000000" stroke="none" 
	d="
M176.370178,92.926323 
	C176.486282,91.780014 176.889526,90.455894 177.657013,89.067368 
	C177.566620,90.251480 177.111954,91.499992 176.370178,92.926323 
z"/>
<path fill="#EB0808" opacity="1.000000" stroke="none" 
	d="
M170.651230,85.976044 
	C170.475479,86.846802 170.003464,87.847336 169.158157,88.842796 
	C169.308243,87.927094 169.831604,87.016457 170.651230,85.976044 
z"/>
<path fill="#DC2122" opacity="1.000000" stroke="none" 
	d="
M173.381256,99.103989 
	C173.486374,97.981270 173.866028,96.644043 174.562408,95.126640 
	C174.471344,96.260796 174.063568,97.575134 173.381256,99.103989 
z"/>
<path fill="#EB0808" opacity="1.000000" stroke="none" 
	d="
M173.494583,82.847153 
	C173.344925,83.468643 172.890503,84.177528 172.071335,84.895081 
	C172.201004,84.247345 172.695419,83.590950 173.494583,82.847153 
z"/>
<path fill="#EB0808" opacity="1.000000" stroke="none" 
	d="
M163.657089,97.115379 
	C163.767548,97.824776 163.591736,98.711380 163.103241,99.752083 
	C162.983963,99.034981 163.177383,98.163780 163.657089,97.115379 
z"/>
<path fill="#DC2122" opacity="1.000000" stroke="none" 
	d="
M183.257660,81.874710 
	C183.421707,81.335129 183.854141,80.679771 184.606842,79.987518 
	C184.460068,80.553383 183.993057,81.156158 183.257660,81.874710 
z"/>
<path fill="#DC2122" opacity="1.000000" stroke="none" 
	d="
M179.313232,86.939644 
	C179.265137,86.497086 179.483521,85.925522 180.020523,85.295105 
	C180.085999,85.761055 179.832855,86.285851 179.313232,86.939644 
z"/>
<path fill="#EB0808" opacity="1.000000" stroke="none" 
	d="
M162.560822,100.012344 
	C162.724823,100.445511 162.621872,101.045715 162.265350,101.835342 
	C162.105804,101.409630 162.199829,100.794518 162.560822,100.012344 
z"/>
<path fill="#DC2122" opacity="1.000000" stroke="none" 
	d="
M178.256256,88.857132 
	C178.185165,88.460358 178.359970,87.892372 178.805023,87.172791 
	C178.884247,87.576111 178.693192,88.131020 178.256256,88.857132 
z"/>
<path fill="#DC2122" opacity="1.000000" stroke="none" 
	d="
M175.439453,94.315277 
	C175.299698,94.078857 175.438080,93.707207 175.847107,93.189262 
	C175.984390,93.421997 175.850998,93.801025 175.439453,94.315277 
z"/>
<path fill="#EB0808" opacity="1.000000" stroke="none" 
	d="
M174.727036,81.940506 
	C174.779388,82.247276 174.535614,82.501907 174.022888,82.789757 
	C173.979584,82.511444 174.205246,82.199905 174.727036,81.940506 
z"/>
<path fill="#EB0808" opacity="1.000000" stroke="none" 
	d="
M168.593231,88.876549 
	C168.714249,89.101639 168.572449,89.418892 168.191544,89.856873 
	C168.078430,89.641304 168.204422,89.305008 168.593231,88.876549 
z"/>
<path fill="#DC2122" opacity="1.000000" stroke="none" 
	d="
M182.305939,83.079803 
	C182.199905,82.866684 182.352127,82.549866 182.746597,82.112213 
	C182.847305,82.319618 182.705750,82.647865 182.305939,83.079803 
z"/>
<path fill="#DC2122" opacity="1.000000" stroke="none" 
	d="
M185.203522,79.861984 
	C184.993179,79.562866 185.163239,79.290825 185.707825,79.035530 
	C185.780594,79.246445 185.614456,79.525368 185.203522,79.861984 
z"/>
<path fill="#DC2122" opacity="1.000000" stroke="none" 
	d="
M180.526581,85.190094 
	C180.407501,84.955353 180.545258,84.608978 180.959808,84.165451 
	C181.085541,84.405014 180.934479,84.741745 180.526581,85.190094 
z"/>
<path fill="#767676" opacity="1.000000" stroke="none" 
	d="
M204.982361,329.081421 
	C204.069626,328.631287 203.156891,328.181122 202.217026,327.206726 
	C202.648392,326.038971 203.106873,325.395447 203.848709,324.354248 
	C201.807312,324.622955 200.417679,324.805878 199.028030,324.988800 
	C186.877777,316.252716 180.905670,304.375916 180.941422,289.437775 
	C180.955276,283.644714 180.946152,277.851562 180.909302,271.600433 
	C186.470779,271.142395 192.070480,271.142395 198.774185,271.142395 
	C198.774185,279.584045 198.327087,287.697113 198.879913,295.741486 
	C199.691315,307.548737 204.949646,317.505280 212.956818,326.305420 
	C210.068909,327.539398 207.525635,328.310425 204.982361,329.081421 
z"/>
<path fill="#818181" opacity="1.000000" stroke="none" 
	d="
M205.189545,329.358826 
	C207.525635,328.310425 210.068909,327.539398 213.073853,326.627686 
	C213.535522,326.486938 213.539917,326.522064 213.399719,326.928955 
	C214.563492,327.864441 215.867493,328.393066 217.171478,328.921661 
	C222.909729,331.161499 228.647980,333.401337 234.694351,335.853027 
	C226.294449,337.491241 218.202835,335.283569 210.320709,331.865173 
	C208.667999,331.148407 207.037491,330.380524 205.189545,329.358826 
z"/>
<path fill="#767676" opacity="1.000000" stroke="none" 
	d="
M216.998688,328.640564 
	C215.867493,328.393066 214.563492,327.864441 213.410995,326.942627 
	C214.650284,327.152740 215.738083,327.756104 216.998688,328.640564 
z"/>
<path fill="#0F0505" opacity="1.000000" stroke="none" 
	d="
M170.332474,190.904144 
	C170.284256,183.017761 170.236038,175.131348 170.649231,166.732178 
	C174.380325,166.119720 177.650024,166.020050 180.919708,165.920364 
	C181.306732,166.912766 182.029892,167.905975 182.027542,168.897461 
	C182.009094,176.689651 181.851807,184.481506 181.261398,192.230270 
	C177.301147,191.759430 173.816818,191.331787 170.332474,190.904144 
z"/>
<path fill="#0E0303" opacity="1.000000" stroke="none" 
	d="
M181.352142,226.678024 
	C177.834991,226.787186 174.633011,226.615555 171.044464,226.442078 
	C170.512161,218.663742 170.366425,210.887253 170.649033,202.575165 
	C174.362930,201.672867 177.648483,201.306122 180.934036,200.939392 
	C181.317886,202.410477 182.032257,203.882217 182.029343,205.352539 
	C182.015427,212.367645 181.806732,219.382370 181.352142,226.678024 
z"/>
<path fill="#F70203" opacity="1.000000" stroke="none" 
	d="
M150.482803,216.116898 
	C153.553848,217.336075 156.249619,218.514557 159.012833,219.371582 
	C159.392288,213.674911 159.704285,208.299698 160.026367,202.462585 
	C162.457047,202.962921 164.877655,203.925110 167.647919,204.943573 
	C167.998093,210.602463 168.036102,216.205383 167.986938,221.807541 
	C167.949463,226.077087 169.304794,230.821152 163.526413,233.358276 
	C162.256882,233.098282 160.219650,232.681061 157.779694,232.393631 
	C157.376984,232.523422 157.385162,232.494568 157.522141,232.120880 
	C156.388580,231.206238 155.118027,230.665268 153.847488,230.124313 
	C153.847488,230.124313 153.871902,230.102020 153.859665,230.119995 
	C150.861725,227.752151 147.751740,225.501968 144.940384,222.925873 
	C143.432678,221.544357 142.438507,219.602386 141.212601,217.913330 
	C142.893585,217.561340 144.573929,217.206253 146.255768,216.858337 
	C147.538712,216.592926 148.823532,216.336578 150.482803,216.116898 
z"/>
<path fill="#EE0D0D" opacity="1.000000" stroke="none" 
	d="
M170.383972,299.299927 
	C173.728348,314.776276 180.198090,327.740082 194.934738,335.768921 
	C175.489868,341.594025 153.582855,305.697235 159.492935,279.428558 
	C162.669373,279.428558 165.905075,279.428558 170.244171,279.428558 
	C170.244171,286.048981 170.244171,292.465515 170.383972,299.299927 
z"/>
<path fill="#EC0B0B" opacity="1.000000" stroke="none" 
	d="
M314.347839,315.262482 
	C308.493561,327.397705 295.481232,337.428589 284.612091,335.736786 
	C305.913544,322.537506 310.207092,302.256012 309.068665,279.462128 
	C311.211487,279.361359 312.818848,279.255798 314.427795,279.218506 
	C316.062317,279.180634 317.698364,279.210144 319.683685,279.210144 
	C320.587769,291.742004 319.844788,303.648865 314.347839,315.262482 
z"/>
<path fill="#818181" opacity="1.000000" stroke="none" 
	d="
M199.127823,325.290222 
	C200.417679,324.805878 201.807312,324.622955 203.848709,324.354248 
	C203.106873,325.395447 202.648392,326.038971 202.021454,326.963104 
	C200.977859,326.693054 200.102737,326.142334 199.127823,325.290222 
z"/>
<path fill="#EB0808" opacity="1.000000" stroke="none" 
	d="
M153.984039,230.409851 
	C155.118027,230.665268 156.388580,231.206238 157.507904,232.123856 
	C156.277985,231.898788 155.199295,231.297089 153.984039,230.409851 
z"/>
</svg>